Coordinates
version=1
nRows=13
nColumns=34
inDegrees=yes

Units are S.I. units (second, meters, Newtons, ...)
If the header above contains a line with 'inDegrees', this indicates whether rotational values are in degrees (yes) or radians (no).

endheader
time	pelvis_tilt	pelvis_list	pelvis_rotation	pelvis_tx	pelvis_ty	pelvis_tz	hip_flexion_r	hip_adduction_r	hip_rotation_r	knee_angle_r	ankle_angle_r	subtalar_angle_r	mtp_angle_r	hip_flexion_l	hip_adduction_l	hip_rotation_l	knee_angle_l	ankle_angle_l	subtalar_angle_l	mtp_angle_l	lumbar_extension	lumbar_bending	lumbar_rotation	arm_flex_r	arm_add_r	arm_rot_r	elbow_flex_r	pro_sup_r	arm_flex_l	arm_add_l	arm_rot_l	elbow_flex_l	pro_sup_l
      2.98333330	     -0.59560269	    -16.48955352	    -55.39438412	      1.79659436	      1.03318872	      3.28753944	     15.29512945	      4.01316540	     -1.47665650	     19.72491346	     -2.98831702	     10.82735338	      0.00000000	     21.47762510	     -3.88093403	     -1.62529079	     25.44432997	     -7.24054392	    -15.27239989	      0.00000000	    -17.47005868	      8.87154628	      1.39744953	     11.03503043	     -5.21440607	      4.26522277	     21.73430986	    119.74817918	     12.45965036	     -8.01124510	     29.44804492	     19.88888245	    117.21683435
      3.00000000	     -1.28162605	    -16.57937918	    -54.89399362	      1.79759412	      1.03227906	      3.28962226	     15.62016630	      4.57502117	     -2.25999975	     19.96872299	     -2.86082304	     10.44748104	      0.00000000	     21.88877417	     -4.27632418	     -1.28231015	     25.49946817	     -7.77482859	    -16.98811673	      0.00000000	    -17.00802153	      9.70994293	      1.23209129	     10.95044182	     -5.17849340	      4.91626829	     21.09891691	    119.74817918	     12.58334776	     -7.83789496	     29.08981704	     18.97495520	    117.14692861
      3.01666670	     -1.55618521	    -16.82841369	    -54.65076413	      1.79742826	      1.03167096	      3.29181383	     15.78154526	      4.95442406	     -2.75022797	     20.57601558	     -2.57603647	     10.04886087	      0.00000000	     21.64215333	     -4.61806993	     -1.51718108	     25.20555852	     -7.64979966	    -17.57299056	      0.00000000	    -17.02070583	     10.04730407	      1.30877193	     10.84844088	     -4.99362615	      5.01794925	     20.93277732	    119.74817918	     12.60391491	     -7.94023308	     28.97350084	     18.71285689	    117.11970652
      3.03333330	     -2.35548383	    -17.06828211	    -53.75787261	      1.79792840	      1.03008576	      3.29281232	     16.13729747	      5.57992219	     -4.02297775	     20.79638731	     -2.60477489	      9.64002673	      0.00000000	     22.05050139	     -4.79444907	      0.61472635	     25.06079698	     -8.84656006	    -19.57493001	      0.00000000	    -16.56060013	     11.07054037	      0.90175242	     10.82831744	     -4.99353009	      6.07716323	     20.58891313	    119.74817918	     12.93731204	     -7.65781766	     27.69254963	     17.76198842	    116.78275998
      3.05000000	     -2.47890565	    -17.19182692	    -53.53924382	      1.79735665	      1.02956155	      3.29416235	     16.36351621	      5.73402045	     -4.48761272	     21.35734026	     -2.35030761	      9.25349238	      0.00000000	     21.80671233	     -4.94133279	      0.73954655	     24.77516878	     -7.23303063	    -20.56479778	      0.00000000	    -16.64329251	     11.19720995	      1.12547329	     10.86647091	     -4.76703445	      6.12388052	     20.58890503	    119.74817918	     13.21619390	     -7.69768234	     27.38282990	     17.42069809	    116.68642922
      3.06666670	     -2.82797570	    -17.56336161	    -52.56635206	      1.79800818	      1.02878038	      3.29546708	     16.29804769	      6.04008935	     -5.72238350	     21.59260457	     -1.93778411	      9.03715853	      0.00000000	     22.02368053	     -5.22688435	      1.60257252	     25.43796285	     -3.66104455	    -16.75027837	      0.00000000	    -16.47457820	     11.85155994	      0.57489412	     10.69010925	     -4.51855345	      6.18240105	     20.98391593	    119.74817918	     13.61828874	     -7.41630262	     25.91256495	     16.21776834	    116.16669834
      3.08333330	     -3.45388689	    -18.07513493	    -52.51491562	      1.79711692	      1.02833545	      3.29818745	     16.30014991	      6.83041388	     -6.69672942	     21.83752313	     -1.71660226	      9.75781495	      0.00000000	     22.30256657	     -6.73784263	     -0.14043072	     26.43401468	      1.35958094	    -11.76998837	      0.00000000	    -16.40529307	     12.54632459	      0.92959493	     10.63921346	     -4.30919363	      6.32498675	     20.96289504	    119.74817918	     13.53881873	     -7.33568364	     24.25732999	     16.19927070	    115.52498291
      3.10000000	     -3.22757534	    -18.08924240	    -51.85286454	      1.79699298	      1.02821721	      3.30017342	     16.37015231	      6.60025856	     -7.24145746	     22.47324620	     -1.08938617	      9.46894370	      0.00000000	     22.07956447	     -6.59306034	     -0.27270741	     26.50272599	      4.68815066	    -11.70479276	      0.00000000	    -16.32808130	     12.29462773	      0.73541663	     10.68606283	     -3.81407343	      6.38559562	     21.03013553	    119.74817918	     13.74237432	     -7.44302401	     23.40587736	     16.00037038	    115.21173860
      3.11666670	     -2.98430856	    -18.15816551	    -50.37992417	      1.79730968	      1.02856950	      3.30237591	     16.14719476	      6.06313562	     -9.34922986	     22.83012646	     -0.35802452	     10.37398921	      0.00000000	     22.04508648	     -6.66333424	     -1.43231249	     26.80884077	      8.74593960	     -9.26535147	      0.00000000	    -16.09246976	     12.10598114	     -0.68376227	     10.87098617	     -2.94675024	      6.22603867	     20.83076190	    119.70069856	     13.63748909	     -7.77630080	     21.19040187	     15.90693576	    114.36243951
      3.13333330	     -2.65801539	    -18.09645639	    -48.99608884	      1.79793120	      1.02900284	      3.30384986	     15.98820070	      5.51066590	    -10.62556546	     23.14131922	      0.30397354	     10.56295841	      0.00000000	     21.94505431	     -6.48134513	     -2.47780825	     26.82592094	     11.48785350	     -6.85683663	      0.00000000	    -15.84220961	     11.84834962	     -1.84605878	     11.06675149	     -2.29025540	      6.26031805	     20.45211198	    119.64129663	     13.74696766	     -7.88091691	     19.43658356	     15.62488424	    113.71341088
      3.15000000	     -2.36998823	    -17.91932948	    -47.94603381	      1.79752374	      1.02959102	      3.30516547	     15.85638584	      5.15165166	    -11.12778259	     23.15922618	      0.60288757	     10.18222592	      0.00000000	     21.87635484	     -6.39651680	     -3.76225818	     26.57178093	     13.36170743	     -3.93594378	      0.00000000	    -15.69934149	     11.44471736	     -2.78036649	     11.48873966	     -1.64504185	      6.54436042	     20.11423769	    119.51653641	     13.89950441	     -8.00958024	     17.75148589	     15.25970317	    113.07060268
      3.16666670	     -2.17613596	    -17.39889560	    -47.15869645	      1.79640639	      1.03022111	      3.30569995	     15.95866060	      4.73370451	    -11.22428904	     22.77703172	      0.50475350	      9.54550210	      0.00000000	     22.03854257	     -5.93666220	     -4.00176463	     25.93619659	     13.19641475	     -2.45112744	      0.00000000	    -15.56116696	     10.88596757	     -3.34279400	     12.04171689	     -1.15810945	      6.77771524	     20.16083531	    119.48886653	     14.44854837	     -8.12694993	     17.18569656	     14.67358787	    112.86254511
      3.18333330	     -2.25699721	    -17.16902079	    -46.85377543	      1.79551860	      1.03099615	      3.30704009	     15.87382433	      4.76454680	    -11.31664281	     22.21102865	      0.45461714	      9.54202938	      0.00000000	     22.25201791	     -5.99135389	     -4.26456689	     25.62572071	     12.21010401	     -1.82375952	      0.00000000	    -15.48201025	     10.73974172	     -3.08902808	     12.40656691	     -1.04871954	      6.88020921	     20.16830064	    119.48239452	     14.86798183	     -7.99382846	     16.98190258	     14.77602697	    112.77719429
